<svg width="14" height="14" viewBox="0 0 14 14" fill="none" xmlns="http://www.w3.org/2000/svg">
<path d="M4.71316 13.7132C4.37354 13.7087 4.04909 13.5718 3.80893 13.3317C3.56877 13.0915 3.43188 12.7671 3.42744 12.4274V8.5703H1.28458C1.03046 8.57007 0.782098 8.49455 0.570871 8.35326C0.359645 8.21196 0.195026 8.01125 0.0978063 7.77645C0.000586852 7.54166 -0.0248726 7.28332 0.0246435 7.03406C0.0741595 6.78481 0.19643 6.55582 0.376013 6.37601L5.94744 0.376012C6.18851 0.135239 6.5153 0 6.85601 0C7.19673 0 7.52351 0.135239 7.76458 0.376012L13.336 6.37601C13.5156 6.55582 13.6379 6.78481 13.6874 7.03406C13.7369 7.28332 13.7114 7.54166 13.6142 7.77645C13.517 8.01125 13.3524 8.21196 13.1412 8.35326C12.9299 8.49455 12.6816 8.57007 12.4274 8.5703H10.2846V12.4274C10.2801 12.7671 10.1433 13.0915 9.9031 13.3317C9.66293 13.5718 9.33848 13.7087 8.99887 13.7132H4.71316Z" fill="#11E032"/>
</svg>
