<svg width="12" height="12" viewBox="0 0 12 12" fill="none" xmlns="http://www.w3.org/2000/svg">
<path fill-rule="evenodd" clip-rule="evenodd" d="M9.42741 7.72031C9.31465 7.72096 9.20286 7.69937 9.09846 7.65678C8.99407 7.61418 8.89911 7.55142 8.81905 7.47209C8.73874 7.39252 8.67499 7.29785 8.63149 7.19355C8.58799 7.08925 8.56559 6.97737 8.56559 6.86438C8.56559 6.75138 8.58799 6.63951 8.63149 6.5352C8.67499 6.4309 8.73874 6.33623 8.81905 6.25666L10.0358 5.04123C10.1161 4.96166 10.1798 4.86699 10.2233 4.76269C10.2668 4.65838 10.2892 4.54651 10.2892 4.43351C10.2892 4.32052 10.2668 4.20864 10.2233 4.10434C10.1798 4.00003 10.1161 3.90537 10.0358 3.8258L8.17641 1.95985C8.09675 1.87963 8.00198 1.81595 7.89757 1.77249C7.79315 1.72904 7.68116 1.70667 7.56804 1.70667C7.45493 1.70667 7.34293 1.72904 7.23852 1.77249C7.1341 1.81595 7.03933 1.87963 6.95968 1.95985L5.75151 3.17528C5.67162 3.25509 5.57678 3.3184 5.47239 3.36159C5.36801 3.40478 5.25613 3.42701 5.14315 3.42701C5.03016 3.42701 4.91829 3.40478 4.8139 3.36159C4.70952 3.3184 4.61467 3.25509 4.53478 3.17528C4.37343 3.01411 4.28279 2.7955 4.28279 2.56757C4.28279 2.4547 4.30504 2.34295 4.34828 2.23867C4.39152 2.1344 4.45489 2.03966 4.53478 1.95985L5.75151 0.744419C6.24398 0.267015 6.90323 0 7.58946 0C8.2757 0 8.93495 0.267015 9.42741 0.744419L11.2439 2.58469C11.4836 2.82324 11.6737 3.10671 11.8035 3.41884C11.9332 3.73096 12 4.06559 12 4.40355C12 4.74151 11.9332 5.07615 11.8035 5.38827C11.6737 5.7004 11.4836 5.98386 11.2439 6.22242L10.0358 7.46353C9.95642 7.54441 9.86179 7.60875 9.75736 7.65283C9.65293 7.6969 9.54078 7.71984 9.42741 7.72031ZM4.92893 7.92574C4.81347 7.93673 4.69698 7.92418 4.58652 7.88887C4.47605 7.85356 4.37391 7.79622 4.28629 7.72031C4.19932 7.64016 4.1299 7.54288 4.08243 7.43461C4.03495 7.32633 4.01044 7.2094 4.01044 7.0912C4.01044 6.97299 4.03495 6.85607 4.08243 6.74779C4.1299 6.63951 4.19932 6.54224 4.28629 6.46208L6.4627 4.29656C6.62632 4.13084 6.84914 4.03684 7.08214 4.03524C7.31514 4.03363 7.53924 4.12455 7.70513 4.288C7.87103 4.45145 7.96513 4.67403 7.96674 4.90678C7.96834 5.13954 7.87732 5.36339 7.7137 5.52911L5.5373 7.72031C5.36883 7.86498 5.15071 7.93863 4.92893 7.92574ZM2.61543 11.2468C3.09704 11.7285 3.75043 11.9994 4.43196 12C5.11348 11.9994 5.76688 11.7285 6.24849 11.2468L7.46522 10.0313C7.62543 9.87016 7.71499 9.65201 7.71418 9.42488C7.71338 9.19774 7.62228 8.98023 7.46093 8.82019C7.29959 8.66014 7.0812 8.57069 6.85382 8.57149C6.62645 8.57229 6.4087 8.66329 6.24849 8.82446L5.04032 10.0313C4.96067 10.1116 4.8659 10.1752 4.76148 10.2187C4.65707 10.2621 4.54507 10.2845 4.43196 10.2845C4.31884 10.2845 4.20685 10.2621 4.10243 10.2187C3.99802 10.1752 3.90325 10.1116 3.82359 10.0313L1.96422 8.17395C1.88391 8.09438 1.82016 7.99971 1.77666 7.89541C1.73316 7.79111 1.71077 7.67923 1.71077 7.56624C1.71077 7.45324 1.73316 7.34137 1.77666 7.23706C1.82016 7.13276 1.88391 7.03809 1.96422 6.95852L3.18095 5.74309C3.34116 5.58191 3.43072 5.36376 3.42992 5.13663C3.42911 4.90949 3.33802 4.69198 3.17667 4.53194C3.01532 4.3719 2.79694 4.28244 2.56956 4.28324C2.34218 4.28404 2.12443 4.37504 1.96422 4.53622L0.756058 5.74309C0.516413 5.98165 0.326268 6.26512 0.196527 6.57724C0.0667856 6.88936 0 7.224 0 7.56196C0 7.89992 0.0667856 8.23455 0.196527 8.54668C0.326268 8.8588 0.516413 9.14227 0.756058 9.38082L2.61543 11.2468Z" fill="#57ECED"/>
</svg>
