<svg width="220" height="48" viewBox="0 0 220 48" fill="none" xmlns="http://www.w3.org/2000/svg">
<path d="M17.3484 37.7544C15.1511 37.7544 13.182 37.3977 11.4413 36.6843C9.70053 35.9708 8.30222 34.915 7.24635 33.5167C6.32153 32.2579 5.78986 30.7679 5.65132 29.0466H3.05753L9.55479 22.1671L16.052 29.0466H13.4993C13.6733 29.881 14.0289 30.5435 14.5661 31.034C15.2224 31.6047 16.0785 31.8901 17.1344 31.8901C18.2188 31.8901 19.0749 31.6475 19.7027 31.1624C20.3305 30.6487 20.6444 29.9495 20.6444 29.0649C20.6444 28.3229 20.3876 27.7094 19.8739 27.2243C19.3888 26.7391 18.7753 26.3396 18.0333 26.0257C17.377 25.7369 16.455 25.4119 15.2673 25.0507L9.55475 19.1096L7.57804 21.1654C7.38942 20.956 7.20751 20.7355 7.03232 20.5038C6.14767 19.3338 5.70535 17.8071 5.70535 15.9236C5.70535 13.127 6.71841 10.9439 8.74454 9.37441C10.7707 7.77634 13.4103 6.9773 16.6635 6.9773C19.9738 6.9773 22.642 7.77634 24.6682 9.37441C26.529 10.8159 27.5955 12.787 27.8677 15.2876H30.5753L24.078 22.1671L17.5808 15.2876H19.9055C19.7511 14.6362 19.4267 14.1062 18.9322 13.6978C18.2759 13.127 17.434 12.8416 16.4067 12.8416C15.5221 12.8416 14.8086 13.0842 14.2664 13.5693C13.7242 14.0259 13.4531 14.6965 13.4531 15.5812C13.4531 16.5515 13.9097 17.3077 14.8229 17.8499C15.6344 18.3317 16.8515 18.8473 18.4743 19.3968L24.078 25.2246L26.1065 23.115C26.414 23.4171 26.7051 23.7452 26.9797 24.0995C27.8643 25.241 28.3066 26.7106 28.3066 28.5084C28.3066 30.2206 27.8643 31.7759 26.9797 33.1742C26.1235 34.5725 24.8679 35.6855 23.2128 36.5131C21.5576 37.3406 19.6028 37.7544 17.3484 37.7544Z" fill="#57ECED"/>
<path d="M58.3927 12.4228L43.4108 47.6516H35.5346L41.0137 35.4949L31.2969 12.4228H39.4727L44.9946 27.3619L50.4737 12.4228H58.3927Z" fill="#57ECED"/>
<path d="M75.3008 12.1659C78.0975 12.1659 80.3233 13.0791 81.9785 14.9055C83.6622 16.7033 84.504 19.186 84.504 22.3536V36.3082H77.2271V23.3382C77.2271 21.7401 76.8133 20.4987 75.9857 19.6141C75.1582 18.7294 74.0452 18.2871 72.6469 18.2871C71.2486 18.2871 70.1356 18.7294 69.3081 19.6141C68.4805 20.4987 68.0667 21.7401 68.0667 23.3382V36.3082H60.747V12.4228H68.0667V15.5904C68.8087 14.5345 69.8075 13.7069 71.0631 13.1077C72.3187 12.4798 73.7313 12.1659 75.3008 12.1659Z" fill="#57ECED"/>
<path d="M87.5738 24.3654C87.5738 21.8827 88.0732 19.7139 89.072 17.859C90.0993 16.0041 91.5119 14.5773 93.3097 13.5785C95.1361 12.5797 97.2193 12.0803 99.5593 12.0803C102.556 12.0803 105.053 12.8651 107.05 14.4346C109.076 16.0041 110.403 18.2157 111.031 21.0694H103.241C102.584 19.2431 101.314 18.3299 99.4309 18.3299C98.0896 18.3299 97.0195 18.8578 96.2205 19.9137C95.4214 20.941 95.0219 22.4249 95.0219 24.3654C95.0219 26.306 95.4214 27.8042 96.2205 28.86C97.0195 29.8873 98.0896 30.401 99.4309 30.401C101.314 30.401 102.584 29.4878 103.241 27.6615H111.031C110.403 30.4581 109.076 32.6554 107.05 34.2535C105.024 35.8516 102.527 36.6506 99.5593 36.6506C97.2193 36.6506 95.1361 36.1512 93.3097 35.1524C91.5119 34.1536 90.0993 32.7268 89.072 30.8719C88.0732 29.017 87.5738 26.8482 87.5738 24.3654Z" fill="#57ECED"/>
<path d="M137.408 5.95059V11.8149H129.446V36H122.126V11.8149H114.165V5.95059H137.408Z" fill="white"/>
<path d="M155.764 11.8577C158.503 11.8577 160.701 12.7709 162.356 14.5973C164.011 16.3951 164.839 18.8778 164.839 22.0454V36H157.562V23.03C157.562 21.4319 157.148 20.1905 156.32 19.3059C155.493 18.4212 154.38 17.9789 152.981 17.9789C151.583 17.9789 150.47 18.4212 149.643 19.3059C148.815 20.1905 148.401 21.4319 148.401 23.03V36H141.082V4.32398H148.401V15.325C149.143 14.2691 150.156 13.4273 151.44 12.7995C152.725 12.1716 154.166 11.8577 155.764 11.8577Z" fill="white"/>
<path d="M170.965 36.1957C170.117 36.1957 169.432 35.9674 168.91 35.5108C168.404 35.0379 168.152 34.4427 168.152 33.7252C168.152 33.0077 168.404 32.4125 168.91 31.9396C169.432 31.4667 170.117 31.2303 170.965 31.2303C171.796 31.2303 172.465 31.4667 172.97 31.9396C173.492 32.4125 173.753 33.0077 173.753 33.7252C173.753 34.4264 173.492 35.0134 172.97 35.4863C172.465 35.9592 171.796 36.1957 170.965 36.1957Z" fill="white"/>
<path d="M176.683 24.2701C176.683 21.8727 177.154 19.775 178.096 17.977C179.066 16.1504 180.393 14.752 182.077 13.7816C183.79 12.7827 185.716 12.2833 187.857 12.2833C190.083 12.2833 191.995 12.797 193.593 13.8244C195.22 14.8519 196.39 16.1647 197.104 17.7629V12.6257H200.1V36H197.104V30.82C196.361 32.4182 195.177 33.7453 193.55 34.8013C191.952 35.8288 190.04 36.3425 187.814 36.3425C185.702 36.3425 183.79 35.843 182.077 34.8441C180.393 33.8452 179.066 32.4325 178.096 30.6059C177.154 28.7794 176.683 26.6674 176.683 24.2701ZM197.104 24.3129C197.104 22.4292 196.718 20.7739 195.948 19.3469C195.177 17.9199 194.121 16.8211 192.78 16.0505C191.467 15.28 190.011 14.8947 188.413 14.8947C186.758 14.8947 185.274 15.2657 183.961 16.0077C182.648 16.7498 181.606 17.8343 180.836 19.2613C180.094 20.6597 179.723 22.3293 179.723 24.2701C179.723 26.1822 180.094 27.8661 180.836 29.3216C181.606 30.7486 182.648 31.8474 183.961 32.618C185.274 33.3601 186.758 33.7311 188.413 33.7311C190.011 33.7311 191.467 33.3458 192.78 32.5752C194.121 31.8046 195.177 30.7058 195.948 29.2788C196.718 27.8518 197.104 26.1965 197.104 24.3129Z" fill="white"/>
<path d="M210.837 15.1515V29.6641C210.837 31.0911 211.108 32.0758 211.651 32.618C212.193 33.1603 213.149 33.4314 214.519 33.4314H217.259V36H214.048C211.936 36 210.366 35.5148 209.339 34.5445C208.311 33.5456 207.798 31.9188 207.798 29.6641V15.1515H204.544V12.6257H207.798V6.76077H210.837V12.6257H217.259V15.1515H210.837Z" fill="white"/>
<path fill-rule="evenodd" clip-rule="evenodd" d="M122.126 11.8149V36H129.446V11.8149H137.408V5.95059H114.165V11.8149H122.126ZM115.165 10.8149H123.126V35H128.446V10.8149H136.408V6.95059H115.165V10.8149ZM161.62 15.2746L161.615 15.2688C160.172 13.6763 158.256 12.8577 155.764 12.8577C154.3 12.8577 153.012 13.1444 151.88 13.6978C150.73 14.2597 149.854 14.9965 149.219 15.8999L147.401 18.4874V5.32398H142.082V35H147.401V23.03C147.401 21.2613 147.862 19.7455 148.912 18.6227C149.959 17.5042 151.353 16.9789 152.981 16.9789C154.61 16.9789 156.004 17.5042 157.051 18.6227C158.101 19.7455 158.562 21.2613 158.562 23.03V35H163.839V22.0454C163.839 19.0522 163.06 16.8383 161.62 15.2746ZM162.356 14.5973C160.701 12.7709 158.503 11.8577 155.764 11.8577C154.166 11.8577 152.725 12.1716 151.44 12.7995C150.661 13.1806 149.981 13.6407 149.401 14.1796C149.026 14.5284 148.693 14.9102 148.401 15.325V4.32398H141.082V36H148.401V23.03C148.401 21.4319 148.815 20.1905 149.643 19.3059C150.47 18.4212 151.583 17.9789 152.981 17.9789C154.38 17.9789 155.493 18.4212 156.32 19.3059C157.148 20.1905 157.562 21.4319 157.562 23.03V36H164.839V22.0454C164.839 18.8778 164.011 16.3951 162.356 14.5973ZM172.97 31.9396C172.465 31.4667 171.796 31.2303 170.965 31.2303C170.117 31.2303 169.432 31.4667 168.91 31.9396C168.404 32.4125 168.152 33.0077 168.152 33.7252C168.152 34.4427 168.404 35.0379 168.91 35.5108C169.432 35.9674 170.117 36.1957 170.965 36.1957C171.796 36.1957 172.465 35.9592 172.97 35.4863C173.492 35.0134 173.753 34.4264 173.753 33.7252C173.753 33.0077 173.492 32.4125 172.97 31.9396ZM169.581 34.769C169.882 35.0265 170.312 35.1957 170.965 35.1957C171.597 35.1957 172.003 35.0219 172.287 34.7561L172.293 34.7507L172.299 34.7453C172.613 34.4611 172.753 34.1427 172.753 33.7252C172.753 33.2839 172.607 32.9599 172.299 32.6806L172.293 32.6753L172.287 32.6699C172.003 32.404 171.597 32.2303 170.965 32.2303C170.316 32.2303 169.889 32.4048 169.587 32.6753C169.296 32.9503 169.152 33.276 169.152 33.7252C169.152 34.171 169.294 34.4952 169.581 34.769ZM182.077 13.7816C180.393 14.752 179.066 16.1504 178.096 17.977C177.154 19.775 176.683 21.8727 176.683 24.2701C176.683 26.6674 177.154 28.7794 178.096 30.6059C179.066 32.4325 180.393 33.8452 182.077 34.8441C183.79 35.843 185.702 36.3425 187.814 36.3425C190.04 36.3425 191.952 35.8288 193.55 34.8013C194.578 34.1343 195.429 33.3591 196.104 32.4757C196.497 31.9606 196.83 31.4087 197.104 30.82V36H200.1V12.6257H197.104V17.7629C196.835 17.1612 196.502 16.6 196.104 16.0792C195.444 15.2167 194.607 14.4651 193.593 13.8244C191.995 12.797 190.083 12.2833 187.857 12.2833C185.716 12.2833 183.79 12.7827 182.077 13.7816ZM195.583 17.0693C194.966 16.1466 194.131 15.3466 193.059 14.6699L193.052 14.6656C191.641 13.7586 189.924 13.2833 187.857 13.2833C185.879 13.2833 184.128 13.7428 182.581 14.6454L182.577 14.648C181.067 15.5181 179.868 16.773 178.98 18.4436C178.127 20.0741 177.683 22.0063 177.683 24.2701C177.683 26.5322 178.126 28.4806 178.982 30.1424C179.87 31.8126 181.071 33.0835 182.584 33.9823C184.133 34.8848 185.868 35.3425 187.814 35.3425C189.881 35.3425 191.597 34.8676 193.008 33.9614C193.97 33.3365 194.749 32.6175 195.357 31.8049C194.752 32.4461 194.06 32.9924 193.281 33.4402C191.809 34.3037 190.178 34.7311 188.413 34.7311C186.603 34.7311 184.946 34.3236 183.469 33.4886L183.462 33.4846L183.455 33.4804C181.974 32.6112 180.807 31.3737 179.956 29.7968L179.95 29.7864L179.945 29.7758C179.12 28.1575 178.723 26.3133 178.723 24.2701C178.723 22.2024 179.118 20.3645 179.952 18.7926L179.956 18.7861C180.809 17.2065 181.98 15.9789 183.469 15.1372C184.946 14.3022 186.603 13.8947 188.413 13.8947C190.178 13.8947 191.809 14.3221 193.282 15.1857C194.159 15.6902 194.926 16.3198 195.583 17.0693ZM196.418 30.4477C196.562 30.2244 196.698 29.9931 196.828 29.754C197.689 28.159 198.104 26.3355 198.104 24.3129C198.104 22.2903 197.689 20.4667 196.828 18.8718C196.689 18.6151 196.542 18.3674 196.386 18.129L198.104 17.7629V13.6257H199.1V35H198.104V30.82L196.418 30.4477ZM180.836 19.2613C181.606 17.8343 182.648 16.7498 183.961 16.0077C185.274 15.2657 186.758 14.8947 188.413 14.8947C190.011 14.8947 191.467 15.28 192.78 16.0505C194.121 16.8211 195.177 17.9199 195.948 19.3469C196.718 20.7739 197.104 22.4292 197.104 24.3129C197.104 26.1965 196.718 27.8518 195.948 29.2788C195.177 30.7058 194.121 31.8046 192.78 32.5752C191.467 33.3458 190.011 33.7311 188.413 33.7311C186.758 33.7311 185.274 33.3601 183.961 32.618C182.648 31.8474 181.606 30.7486 180.836 29.3216C180.094 27.8661 179.723 26.1822 179.723 24.2701C179.723 22.3293 180.094 20.6597 180.836 19.2613ZM209.837 14.1515H216.259V13.6257H209.837V7.76077H208.798V13.6257H205.544V14.1515H208.798V29.6641C208.798 31.7947 209.286 33.0951 210.031 33.8226C210.799 34.5449 212.072 35 214.048 35H216.259V34.4314H214.519C213.075 34.4314 211.775 34.1567 210.943 33.3251C210.106 32.488 209.837 31.1511 209.837 29.6641V14.1515ZM209.339 34.5445C208.311 33.5456 207.798 31.9188 207.798 29.6641V15.1515H204.544V12.6257H207.798V6.76077H210.837V12.6257H217.259V15.1515H210.837V29.6641C210.837 31.0911 211.108 32.0757 211.651 32.618C212.193 33.1603 213.149 33.4314 214.519 33.4314H217.259V36H214.048C211.936 36 210.366 35.5148 209.339 34.5445Z" fill="white"/>
</svg>
