<svg width="16" height="16" viewBox="0 0 16 16" fill="none" xmlns="http://www.w3.org/2000/svg">
<path d="M0 2C0 0.89543 0.895431 0 2 0H14C15.1046 0 16 0.89543 16 2V13.2381C16 14.3427 15.1046 15.2381 14 15.2381H2C0.895431 15.2381 0 14.3427 0 13.2381V2Z" fill="url(#paint0_linear_6_565)"/>
<path d="M12.1905 3.90318C12.1941 3.77855 12.1688 3.65477 12.1167 3.54149C12.0646 3.42822 11.987 3.3285 11.8901 3.25012C11.7994 3.17727 11.6943 3.12447 11.5817 3.0952C11.4692 3.06594 11.3517 3.06086 11.237 3.08033L6.31293 4.11216C6.12909 4.14969 5.96379 4.24939 5.84485 4.3945C5.72591 4.53961 5.66058 4.72127 5.65987 4.9089V8.51379C5.65968 8.53982 5.65301 8.56539 5.64047 8.58819C5.62793 8.61099 5.60991 8.63031 5.58803 8.64441C5.56619 8.65702 5.54142 8.66366 5.5162 8.66366C5.49098 8.66366 5.4662 8.65702 5.44436 8.64441C5.25128 8.57643 5.04823 8.54112 4.84354 8.53992C4.48918 8.53994 4.14275 8.64479 3.84785 8.84128C3.55295 9.03776 3.32277 9.3171 3.18629 9.64412C3.0498 9.97114 3.01311 10.3312 3.08083 10.6791C3.14856 11.0269 3.31766 11.3469 3.56687 11.5988C3.81608 11.8508 4.13425 12.0233 4.48132 12.0948C4.82839 12.1663 5.18886 12.1335 5.51734 12.0006C5.84583 11.8677 6.12764 11.6405 6.32732 11.3478C6.52699 11.055 6.6356 10.7098 6.63946 10.3554V7.13584C6.63841 7.09684 6.65082 7.05866 6.67461 7.02774C6.6984 6.99682 6.73211 6.97503 6.77007 6.96604L11.015 6.09747C11.0388 6.09127 11.0637 6.09101 11.0876 6.09671C11.1115 6.1024 11.1337 6.11387 11.1521 6.13012C11.1715 6.14425 11.187 6.16301 11.1973 6.18469C11.2076 6.20636 11.2122 6.23026 11.2109 6.2542V7.36441C11.2107 7.39043 11.204 7.416 11.1915 7.4388C11.179 7.4616 11.1609 7.48092 11.1391 7.49502C11.1172 7.50763 11.0924 7.51427 11.0672 7.51427C11.042 7.51427 11.0172 7.50763 10.9954 7.49502C10.8023 7.42704 10.5993 7.39173 10.3946 7.39053C10.0405 7.39057 9.69432 7.49527 9.39957 7.69148C9.10483 7.88768 8.87466 8.16664 8.738 8.49328C8.60133 8.81992 8.56428 9.17968 8.63148 9.52732C8.69869 9.87496 8.86715 10.195 9.11571 10.4472C9.36427 10.6993 9.68182 10.8724 10.0285 10.9446C10.3751 11.0168 10.7353 10.985 11.0639 10.853C11.3925 10.7211 11.6748 10.495 11.8752 10.2031C12.0756 9.91123 12.1853 9.56661 12.1905 9.21257V3.90318ZM6.63946 5.17665C6.63841 5.13765 6.65082 5.09948 6.67461 5.06856C6.6984 5.03763 6.73211 5.01584 6.77007 5.00686L11.015 4.13828C11.0388 4.13209 11.0637 4.13183 11.0876 4.13752C11.1115 4.14322 11.1337 4.15469 11.1521 4.17094C11.1715 4.18507 11.187 4.20383 11.1973 4.2255C11.2076 4.24718 11.2122 4.27107 11.2109 4.29502V4.94808C11.2114 4.9855 11.1985 5.02186 11.1746 5.05061C11.1506 5.07935 11.1172 5.09858 11.0803 5.10482L6.83538 5.96033C6.81416 5.97121 6.79066 5.97689 6.76681 5.97689C6.74296 5.97689 6.71945 5.97121 6.69824 5.96033C6.68002 5.94515 6.66532 5.92619 6.65517 5.90476C6.64502 5.88334 6.63966 5.85995 6.63946 5.83624V5.17665Z" fill="white"/>
<defs>
<linearGradient id="paint0_linear_6_565" x1="0" y1="0" x2="13.2394" y2="4.60274" gradientUnits="userSpaceOnUse">
<stop stop-color="#57ECED"/>
<stop offset="1" stop-color="#2C9192"/>
</linearGradient>
</defs>
</svg>
