<svg width="12" height="12" viewBox="0 0 12 12" fill="none" xmlns="http://www.w3.org/2000/svg">
<path d="M11.259 4.80858L1.9208 0.13717C1.73611 0.0483901 1.53406 0.00155675 1.32913 2.78318e-05C1.15499 -0.00110248 0.982348 0.0322059 0.82114 0.0980355C0.659932 0.163865 0.513342 0.260916 0.389808 0.383602C0.266273 0.506287 0.168235 0.652184 0.101335 0.812894C0.0344355 0.973605 -3.67113e-06 1.14595 2.93517e-10 1.32002L2.93517e-10 10.68C-3.67113e-06 10.854 0.0344355 11.0264 0.101335 11.1871C0.168235 11.3478 0.266273 11.4937 0.389808 11.6164C0.513342 11.7391 0.659932 11.8361 0.82114 11.902C0.982348 11.9678 1.15499 12.0011 1.32913 12C1.53406 11.9984 1.73611 11.9516 1.9208 11.8628L11.259 7.19142C11.4814 7.08172 11.6687 6.912 11.7996 6.70145C11.9306 6.4909 12 6.24792 12 6C12 5.75208 11.9306 5.5091 11.7996 5.29855C11.6687 5.088 11.4814 4.91828 11.259 4.80858V4.80858Z" fill="#57ECED"/>
</svg>
