<svg width="14" height="14" viewBox="0 0 14 14" fill="none" xmlns="http://www.w3.org/2000/svg">
<path d="M4.71316 -2.00272e-05C4.37354 0.00441991 4.04909 0.141305 3.80893 0.381468C3.56877 0.62163 3.43188 0.946082 3.42744 1.28569V5.14284H1.28458C1.03046 5.14306 0.782098 5.21859 0.570871 5.35988C0.359645 5.50117 0.195026 5.70189 0.0978063 5.93668C0.000586852 6.17148 -0.0248726 6.42982 0.0246435 6.67907C0.0741595 6.92833 0.19643 7.15732 0.376013 7.33712L5.94744 13.3371C6.18851 13.5779 6.5153 13.7131 6.85601 13.7131C7.19673 13.7131 7.52351 13.5779 7.76458 13.3371L13.336 7.33712C13.5156 7.15732 13.6379 6.92833 13.6874 6.67907C13.7369 6.42982 13.7114 6.17148 13.6142 5.93668C13.517 5.70189 13.3524 5.50117 13.1412 5.35988C12.9299 5.21859 12.6816 5.14306 12.4274 5.14284H10.2846V1.28569C10.2801 0.946082 10.1433 0.62163 9.9031 0.381468C9.66293 0.141305 9.33848 0.00441991 8.99887 -2.00272e-05H4.71316Z" fill="#F11E11"/>
</svg>
