<svg width="12" height="12" viewBox="0 0 12 12" fill="none" xmlns="http://www.w3.org/2000/svg">
<path d="M11.6895 11.4272C11.8951 11.2117 12.0067 10.9233 11.9997 10.6254C11.9927 10.3276 11.8676 10.0448 11.652 9.83914L7.79131 6.15636C7.73741 6.10496 7.70615 6.03425 7.70439 5.95979C7.70264 5.88533 7.73053 5.81323 7.78194 5.75934L11.4647 1.8986C11.6703 1.68303 11.7819 1.39461 11.7749 1.09678C11.7679 0.798954 11.6428 0.516115 11.4272 0.310487C11.2117 0.104859 10.9233 -0.00671354 10.6254 0.000312849C10.3276 0.00733924 10.0448 0.132389 9.83914 0.347954L6.15636 4.20869C6.10496 4.26259 6.03425 4.29385 5.95979 4.29561C5.88533 4.29736 5.81323 4.26947 5.75934 4.21806L1.8986 0.535288C1.68303 0.32966 1.39461 0.218087 1.09678 0.225114C0.798954 0.23214 0.516115 0.35719 0.310487 0.572755C0.104859 0.78832 -0.00671354 1.07674 0.000312849 1.37457C0.00733924 1.6724 0.132389 1.95524 0.347954 2.16086L4.20869 5.84364C4.26259 5.89504 4.29385 5.96575 4.29561 6.04021C4.29736 6.11467 4.26947 6.18677 4.21806 6.24066L0.535288 10.1014C0.32966 10.317 0.218088 10.6054 0.225114 10.9032C0.23214 11.201 0.35719 11.4839 0.572755 11.6895C0.78832 11.8951 1.07674 12.0067 1.37457 11.9997C1.6724 11.9927 1.95524 11.8676 2.16086 11.652L5.84364 7.79131C5.89504 7.73741 5.96575 7.70615 6.04021 7.70439C6.11467 7.70264 6.18677 7.73053 6.24066 7.78194L10.1014 11.4647C10.317 11.6703 10.6054 11.7819 10.9032 11.7749C11.201 11.7679 11.4839 11.6428 11.6895 11.4272Z" fill="#57ECED"/>
</svg>
