<svg width="13" height="13" viewBox="0 0 13 13" fill="none" xmlns="http://www.w3.org/2000/svg">
<path fill-rule="evenodd" clip-rule="evenodd" d="M11.3644 0H11.8287C12.4696 0 12.9893 0.51961 12.9893 1.16058V11.8379C12.9893 12.4789 12.4696 12.9985 11.8287 12.9985H11.3644C10.7235 12.9985 10.2039 12.4789 10.2039 11.8379V1.16058C10.2039 0.51961 10.7235 0 11.3644 0ZM2.24689 0.306425L8.19834 5.19943C8.39071 5.35706 8.54568 5.55542 8.6521 5.7802C8.75852 6.00498 8.81371 6.25058 8.81371 6.49928C8.81371 6.74798 8.75852 6.99358 8.6521 7.21836C8.54568 7.44314 8.39071 7.6415 8.19834 7.79913L2.22832 12.6921C2.0282 12.8556 1.78579 12.9589 1.52927 12.9901C1.27275 13.0212 1.01266 12.9789 0.779249 12.868C0.54584 12.7571 0.3487 12.5823 0.210754 12.3638C0.0728078 12.1453 -0.000275527 11.8921 7.80587e-07 11.6337V1.36487C-1.82414e-06 1.18486 0.0356062 1.00662 0.104776 0.840418C0.173945 0.67422 0.27531 0.523347 0.403032 0.396487C0.530755 0.269628 0.682312 0.169288 0.848975 0.101247C1.01564 0.0332058 1.19412 -0.00119303 1.37413 3.15835e-05C1.69096 0.00264334 1.99795 0.110416 2.24689 0.306425Z" fill="#57ECED"/>
</svg>
